<?xml version="1.0" encoding="UTF-8" standalone="no"?>
<svg
   width="24"
   height="24"
   version="1.1"
   id="svg33"
   sodipodi:docname="flagen.svg"
   xmlns:inkscape="http://www.inkscape.org/namespaces/inkscape"
   xmlns:sodipodi="http://sodipodi.sourceforge.net/DTD/sodipodi-0.dtd"
   xmlns="http://www.w3.org/2000/svg"
   xmlns:svg="http://www.w3.org/2000/svg">
  <defs
     id="defs37" />
  <sodipodi:namedview
     id="namedview35"
     pagecolor="#ffffff"
     bordercolor="#000000"
     borderopacity="0.25"
     inkscape:showpageshadow="2"
     inkscape:pageopacity="0.0"
     inkscape:pagecheckerboard="0"
     inkscape:deskcolor="#d1d1d1" />
  <svg
     id="language-uk"
     viewBox="0 0 24 24"
     version="1.1">
    <g
       id="g30">
      <path
         d="M12 24C18.6274 24 24 18.6274 24 12C24 5.37258 18.6274 0 12 0C5.37258 0 0 5.37258 0 12C0 18.6274 5.37258 24 12 24Z"
         fill="#F0F0F0"
         id="path2" />
      <path
         d="M2.48081 4.69415C1.5382 5.92054 0.827434 7.33406 0.413574 8.86964H6.65629L2.48081 4.69415Z"
         fill="#0052B4"
         id="path4" />
      <path
         d="M23.5869 8.86965C23.173 7.33412 22.4622 5.9206 21.5196 4.69421L17.3442 8.86965H23.5869Z"
         fill="#0052B4"
         id="path6" />
      <path
         d="M0.413574 15.1305C0.82748 16.666 1.53825 18.0795 2.48081 19.3059L6.65615 15.1305H0.413574Z"
         fill="#0052B4"
         id="path8" />
      <path
         d="M19.3058 2.48067C18.0794 1.53806 16.6659 0.827297 15.1304 0.413391V6.65606L19.3058 2.48067Z"
         fill="#0052B4"
         id="path10" />
      <path
         d="M4.69434 21.5193C5.92073 22.4619 7.33424 23.1727 8.86977 23.5866V17.344L4.69434 21.5193Z"
         fill="#0052B4"
         id="path12" />
      <path
         d="M8.86973 0.413391C7.33419 0.827297 5.92068 1.53806 4.69434 2.48063L8.86973 6.65602V0.413391Z"
         fill="#0052B4"
         id="path14" />
      <path
         d="M15.1309 23.5866C16.6664 23.1727 18.0799 22.4619 19.3063 21.5194L15.1309 17.344V23.5866Z"
         fill="#0052B4"
         id="path16" />
      <path
         d="M17.3442 15.1305L21.5196 19.3059C22.4622 18.0796 23.173 16.666 23.5869 15.1305H17.3442Z"
         fill="#0052B4"
         id="path18" />
      <path
         d="M23.8984 10.4348H13.5653H13.5652V0.101578C13.0529 0.034875 12.5305 0 12 0C11.4694 0 10.9471 0.034875 10.4348 0.101578V10.4347V10.4348H0.101578C0.034875 10.9471 0 11.4695 0 12C0 12.5306 0.034875 13.0529 0.101578 13.5652H10.4347H10.4348V23.8984C10.9471 23.9651 11.4694 24 12 24C12.5305 24 13.0529 23.9652 13.5652 23.8984V13.5653V13.5652H23.8984C23.9651 13.0529 24 12.5306 24 12C24 11.4695 23.9651 10.9471 23.8984 10.4348V10.4348Z"
         fill="#D80027"
         id="path20" />
      <path
         d="M15.1304 15.1305L20.4852 20.4853C20.7315 20.2391 20.9664 19.9817 21.1906 19.7149L16.6061 15.1305H15.1304V15.1305Z"
         fill="#D80027"
         id="path22" />
      <path
         d="M8.86951 15.1305H8.86941L3.51465 20.4853C3.76084 20.7315 4.01823 20.9665 4.28504 21.1906L8.86951 16.6061V15.1305Z"
         fill="#D80027"
         id="path24" />
      <path
         d="M8.86976 8.86963V8.86954L3.51495 3.51468C3.26866 3.76087 3.03373 4.01826 2.80957 4.28507L7.39409 8.86958H8.86976V8.86963Z"
         fill="#D80027"
         id="path26" />
      <path
         d="M15.1304 8.86965L20.4852 3.51475C20.239 3.26846 19.9817 3.03353 19.7148 2.80942L15.1304 7.39393V8.86965Z"
         fill="#D80027"
         id="path28" />
    </g>
  </svg>
</svg>
